<svg xmlns="http://www.w3.org/2000/svg" width="512" height="512" viewBox="0 0 512 512">
  <defs>
    <linearGradient id="bg" x1="0" y1="0" x2="1" y2="1"><stop offset="0" stop-color="#061a2d"/><stop offset="1" stop-color="#0b3154"/></linearGradient>
    <linearGradient id="blue" x1="0" y1="0" x2="1" y2="1"><stop offset="0" stop-color="#70c1ff"/><stop offset=".5" stop-color="#2497ff"/><stop offset="1" stop-color="#126bc0"/></linearGradient>
  </defs>
  <rect width="512" height="512" rx="112" fill="url(#bg)"/>
  <path d="M76 76h360v18c-78 7-132 34-180 82C206 128 154 101 76 94Z" fill="#2497ff" opacity=".22"/>
  <path d="M92 285V170h48l62 74 62-74h48v115h-47v-54l-63 70-63-70v54Z" fill="#fff"/>
  <path d="M108 309l61-58 30 36 62-72 41 43-56 70-50-27-37 39Z" fill="url(#blue)"/>
  <path d="M250 196c30-38 62-57 96-56 42 1 68 27 75 68-24-21-45-30-66-29-23 1-48 12-74 37Z" fill="url(#blue)"/>
  <circle cx="356" cy="145" r="39" fill="#fff"/>
  <path d="M356 113l11 16 19 4-13 14 2 20-19-8-18 8 2-20-13-14 19-4Z" fill="#17263a"/>
  <text x="256" y="410" text-anchor="middle" fill="#fff" font-family="Arial,Helvetica,sans-serif" font-size="61" font-weight="900" font-style="italic" letter-spacing="-4">Match</text>
  <text x="363" y="410" text-anchor="middle" fill="#2497ff" font-family="Arial,Helvetica,sans-serif" font-size="61" font-weight="900" font-style="italic" letter-spacing="-4">Up</text>
</svg>