<svg xmlns="http://www.w3.org/2000/svg" viewBox="0 0 128 128"><rect width="128" height="128" rx="28" fill="#2fb66e"/><circle cx="64" cy="47" r="27" fill="#f1c8aa"/><path d="M36 43c3-22 13-32 29-32 17 0 26 10 28 31l-8-4v11H43V39Z" fill="#b8b7bc"/><path d="M44 45c5-3 11-4 20-4s15 1 20 4" fill="none" stroke="#2b3340" stroke-width="3"/><circle cx="54" cy="48" r="3" fill="#111827"/><circle cx="74" cy="48" r="3" fill="#111827"/><path d="M56 62c5 3 11 3 16 0" fill="none" stroke="#9b5d50" stroke-width="3" stroke-linecap="round"/><path d="M28 114c4-24 18-36 36-36s32 12 36 36" fill="#18212c"/><path d="M55 83h18l-9 10Z" fill="#40a9ee"/><path d="M58 82v31M70 82v31" stroke="#d8e5ef" stroke-width="3"/></svg>