<svg xmlns="http://www.w3.org/2000/svg" viewBox="0 0 128 128"><rect width="128" height="128" rx="28" fill="#6f9fd8"/><circle cx="64" cy="48" r="27" fill="#f2c39d"/><path d="M37 45c0-23 13-34 28-34 18 0 28 12 28 34-8-5-18-8-28-8s-20 3-28 8Z" fill="#4a2b20"/><path d="M42 46h19M67 46h19M61 46h6" stroke="#2b3340" stroke-width="4" stroke-linecap="round"/><circle cx="53" cy="49" r="3" fill="#111827"/><circle cx="75" cy="49" r="3" fill="#111827"/><path d="M56 62c5 4 11 4 16 0" fill="none" stroke="#9b5d50" stroke-width="3" stroke-linecap="round"/><path d="M27 114c3-25 18-36 37-36s34 11 37 36" fill="#16a67a"/><path d="M45 85h38l-19 29Z" fill="#dff7ef"/><path d="M55 85l9 10 9-10" fill="none" stroke="#efb8d4" stroke-width="4"/></svg>