<svg xmlns="http://www.w3.org/2000/svg" viewBox="0 0 128 128"><rect width="128" height="128" rx="28" fill="#163a63"/><circle cx="64" cy="48" r="28" fill="#f0b58d"/><path d="M35 47c2-24 15-34 30-34 19 0 29 13 29 34-9-7-18-10-29-10-11 0-20 3-30 10Z" fill="#392516"/><circle cx="53" cy="48" r="4" fill="#111827"/><circle cx="75" cy="48" r="4" fill="#111827"/><path d="M55 61c6 5 12 5 18 0" fill="none" stroke="#8d4f43" stroke-width="3" stroke-linecap="round"/><path d="M29 113c4-24 17-35 35-35s31 11 35 35" fill="#1d8ee8"/><path d="M49 86h30l-15 14Z" fill="#e8f4ff"/><circle cx="64" cy="96" r="6" fill="#0e2c4a"/><path d="M64 90v12M58 96h12" stroke="#fff" stroke-width="2"/></svg>